<?xml version="1.0" encoding="utf-8"?>
<COLLADA xmlns="http://www.collada.org/2005/11/COLLADASchema" version="1.4.1" xmlns:xsi="http://www.w3.org/2001/XMLSchema-instance">
  <asset>
    <contributor>
      <author>Blender User</author>
      <authoring_tool>Blender 4.2.18 LTS commit date:2026-02-16, commit time:13:37, hash:d71e3422e438</authoring_tool>
    </contributor>
    <created>2026-03-26T09:46:38</created>
    <modified>2026-03-26T09:46:38</modified>
    <unit name="meter" meter="1"/>
    <up_axis>Z_UP</up_axis>
  </asset>
  <library_effects>
    <effect id="Material_004-effect">
      <profile_COMMON>
        <technique sid="common">
          <lambert>
            <emission>
              <color sid="emission">0 0 0 1</color>
            </emission>
            <diffuse>
              <color sid="diffuse">1 0 0 1</color>
            </diffuse>
            <reflectivity>
              <float sid="specular">0.823</float>
            </reflectivity>
            <index_of_refraction>
              <float sid="ior">1.5</float>
            </index_of_refraction>
          </lambert>
        </technique>
      </profile_COMMON>
    </effect>
    <effect id="Material-effect">
      <profile_COMMON>
        <technique sid="common">
          <lambert>
            <emission>
              <color sid="emission">0 0 0 1</color>
            </emission>
            <diffuse>
              <color sid="diffuse">0.802495 0.03104612 0.05185643 1</color>
            </diffuse>
            <reflectivity>
              <float sid="specular">0.8235294</float>
            </reflectivity>
            <index_of_refraction>
              <float sid="ior">1.5</float>
            </index_of_refraction>
          </lambert>
        </technique>
      </profile_COMMON>
    </effect>
    <effect id="Material_003-effect">
      <profile_COMMON>
        <technique sid="common">
          <lambert>
            <emission>
              <color sid="emission">0 0 0 1</color>
            </emission>
            <diffuse>
              <color sid="diffuse">1 0 0 1</color>
            </diffuse>
            <reflectivity>
              <float sid="specular">0.824</float>
            </reflectivity>
            <index_of_refraction>
              <float sid="ior">1.5</float>
            </index_of_refraction>
          </lambert>
        </technique>
      </profile_COMMON>
    </effect>
  </library_effects>
  <library_images/>
  <library_materials>
    <material id="Material_004-material" name="Material.004">
      <instance_effect url="#Material_004-effect"/>
    </material>
    <material id="Material-material" name="Material">
      <instance_effect url="#Material-effect"/>
    </material>
    <material id="Material_003-material" name="Material.003">
      <instance_effect url="#Material_003-effect"/>
    </material>
  </library_materials>
  <library_geometries>
    <geometry id="Cylinder_013-mesh" name="Cylinder.013">
      <mesh>
        <source id="Cylinder_013-mesh-positions">
          <float_array id="Cylinder_013-mesh-positions-array" count="408">1.90735e-6 1.199578 3.57628e-7 1.90735e-6 1.199578 0.07093012 0.1950227 1.176529 3.57628e-7 0.1950227 1.176529 0.07093012 0.382549 1.108266 3.57628e-7 0.382549 1.108266 0.07093012 0.5553742 0.9974128 3.57628e-7 0.5553742 0.9974128 0.07093012 0.7068568 0.8482298 3.57628e-7 0.7068568 0.8482298 0.07093012 0.8311753 0.66645 3.57628e-7 0.8311753 0.66645 0.07093012 0.9235523 0.4590587 3.57628e-7 0.9235523 0.4590587 0.07093012 0.9804378 0.2340261 3.57628e-7 0.9804378 0.2340261 0.07093012 0.9996457 0 3.57628e-7 0.9996457 0 0.07093012 0.9804378 -0.2340261 3.57628e-7 0.9804378 -0.2340261 0.07093012 0.9235523 -0.4590587 3.57628e-7 0.9235523 -0.4590587 0.07093012 0.8311753 -0.66645 3.57628e-7 0.8311753 -0.66645 0.07093012 0.7068568 -0.8482298 3.57628e-7 0.7068568 -0.8482298 0.07093012 0.5553742 -0.9974128 3.57628e-7 0.5553742 -0.9974128 0.07093012 0.382549 -1.108266 3.57628e-7 0.382549 -1.108266 0.07093012 0.1950227 -1.176529 3.57628e-7 0.1950227 -1.176529 0.07093012 1.90735e-6 -1.199578 3.57628e-7 1.90735e-6 -1.199578 0.07093012 -0.1950189 -1.176529 3.57628e-7 -0.1950189 -1.176529 0.07093012 -0.3825452 -1.108266 3.57628e-7 -0.3825452 -1.108266 0.07093012 -0.5553704 -0.9974128 3.57628e-7 -0.5553704 -0.9974128 0.07093012 -0.706853 -0.8482298 3.57628e-7 -0.706853 -0.8482298 0.07093012 -0.8311715 -0.66645 3.57628e-7 -0.8311715 -0.66645 0.07093012 -0.9235485 -0.4590587 3.57628e-7 -0.9235485 -0.4590587 0.07093012 -0.980434 -0.2340261 3.57628e-7 -0.980434 -0.2340261 0.07093012 -0.9996418 0 3.57628e-7 -0.9996418 0 0.07093012 -0.980434 0.2340261 3.57628e-7 -0.980434 0.2340261 0.07093012 -0.9235485 0.4590587 3.57628e-7 -0.9235485 0.4590587 0.07093012 -0.8311715 0.66645 3.57628e-7 -0.8311715 0.66645 0.07093012 -0.706853 0.8482298 3.57628e-7 -0.706853 0.8482298 0.07093012 -0.5553704 0.9974128 3.57628e-7 -0.5553704 0.9974128 0.07093012 -0.3825452 1.108266 3.57628e-7 -0.3825452 1.108266 0.07093012 -0.1950189 1.176529 3.57628e-7 -0.1950189 1.176529 0.07093012 1.90735e-6 1 0.07030153 1.90735e-6 1 2.070302 0.1950922 0.9807854 0.07030153 0.1950922 0.9807854 2.070302 0.3826854 0.9238796 0.07030153 0.3826854 0.9238796 2.070302 0.5555722 0.8314697 0.07030153 0.5555722 0.8314697 2.070302 0.7071087 0.7071068 0.07030153 0.7071087 0.7071068 2.070302 0.8314716 0.5555703 0.07030153 0.8314716 0.5555703 2.070302 0.9238815 0.3826835 0.07030153 0.9238815 0.3826835 2.070302 0.9807873 0.1950903 0.07030153 0.9807873 0.1950903 2.070302 1.000002 0 0.07030153 1.000002 0 2.070302 0.9807873 -0.1950903 0.07030153 0.9807873 -0.1950903 2.070302 0.9238815 -0.3826835 0.07030153 0.9238815 -0.3826835 2.070302 0.8314716 -0.5555703 0.07030153 0.8314716 -0.5555703 2.070302 0.7071087 -0.7071068 0.07030153 0.7071087 -0.7071068 2.070302 0.5555722 -0.8314697 0.07030153 0.5555722 -0.8314697 2.070302 0.3826854 -0.9238796 0.07030153 0.3826854 -0.9238796 2.070302 0.1950922 -0.9807854 0.07030153 0.1950922 -0.9807854 2.070302 1.90735e-6 -1 0.07030153 1.90735e-6 -1 2.070302 -0.1950884 -0.9807854 0.07030153 -0.1950884 -0.9807854 2.070302 -0.3826816 -0.9238796 0.07030153 -0.3826816 -0.9238796 2.070302 -0.5555684 -0.8314697 0.07030153 -0.5555684 -0.8314697 2.070302 -0.7071049 -0.7071068 0.07030153 -0.7071049 -0.7071068 2.070302 -0.8314678 -0.5555703 0.07030153 -0.8314678 -0.5555703 2.070302 -0.9238777 -0.3826835 0.07030153 -0.9238777 -0.3826835 2.070302 -0.9807835 -0.1950903 0.07030153 -0.9807835 -0.1950903 2.070302 -0.9999982 0 0.07030153 -0.9999982 0 2.070302 -0.9807835 0.1950903 0.07030153 -0.9807835 0.1950903 2.070302 -0.9238777 0.3826835 0.07030153 -0.9238777 0.3826835 2.070302 -0.8314678 0.5555703 0.07030153 -0.8314678 0.5555703 2.070302 -0.7071049 0.7071068 0.07030153 -0.7071049 0.7071068 2.070302 -0.5555684 0.8314697 0.07030153 -0.5555684 0.8314697 2.070302 -0.3826816 0.9238796 0.07030153 -0.3826816 0.9238796 2.070302 -0.1950884 0.9807854 0.07030153 -0.1950884 0.9807854 2.070302 -9.221387 -0.5524366 -0.0379846 -9.221387 -0.5524366 0.002798795 -9.221387 0.5825929 -0.0379846 -9.221387 0.5825929 0.002798795 9.137358 -0.5524366 -0.0379846 9.137358 -0.5524366 0.002798795 9.137358 0.5825929 -0.0379846 9.137358 0.5825929 0.002798795</float_array>
          <technique_common>
            <accessor source="#Cylinder_013-mesh-positions-array" count="136" stride="3">
              <param name="X" type="float"/>
              <param name="Y" type="float"/>
              <param name="Z" type="float"/>
            </accessor>
          </technique_common>
        </source>
        <source id="Cylinder_013-mesh-normals">
          <float_array id="Cylinder_013-mesh-normals-array" count="780">0.1173734 0.9930878 0 0.3420597 0.9396783 0 0.5398989 0.8417299 0 0.701678 0.7124941 0 0.8254283 0.564507 0 0.9134792 0.4068855 0 0.9695032 0.2450785 0 0.9966487 0.08180081 0 0.9966487 -0.08180081 0 0.9695032 -0.2450785 0 0.9134792 -0.4068855 0 0.8254283 -0.564507 0 0.701678 -0.7124941 0 0.5398989 -0.8417299 0 0.3420597 -0.9396783 0 0.1173734 -0.9930878 0 -0.1173734 -0.9930878 0 -0.3420597 -0.9396783 0 -0.5398989 -0.8417299 0 -0.701678 -0.7124941 0 -0.8254283 -0.564507 0 -0.9134792 -0.4068855 0 -0.9695032 -0.2450785 0 -0.9966487 -0.08180081 0 -0.9966487 0.08180081 0 -0.9695032 0.2450785 0 -0.9134792 0.4068855 0 -0.8254283 0.564507 0 -0.701678 0.7124941 0 -0.5398989 0.8417299 0 0 0 1 -0.3420597 0.9396783 0 -0.1173734 0.9930878 0 0 0 -1 0.09801727 0.9951847 0 0.2902846 0.9569404 0 0.4713967 0.8819213 0 0.6343935 0.7730103 0 0.7730103 0.6343935 0 0.8819213 0.4713967 0 0.9569404 0.2902846 0 0.9951847 0.09801727 0 0.9951847 -0.09801727 0 0.9569404 -0.2902846 0 0.8819213 -0.4713967 0 0.7730103 -0.6343935 0 0.6343935 -0.7730103 0 0.4713967 -0.8819213 0 0.2902846 -0.9569404 0 0.09801727 -0.9951847 0 -0.09801727 -0.9951847 0 -0.2902846 -0.9569404 0 -0.4713967 -0.8819213 0 -0.6343935 -0.7730103 0 -0.7730103 -0.6343935 0 -0.8819213 -0.4713967 0 -0.9569404 -0.2902846 0 -0.9951847 -0.09801727 0 -0.9951847 0.09801727 0 -0.9569404 0.2902846 0 -0.8819213 0.4713967 0 -0.7730103 0.6343935 0 -0.6343935 0.7730103 0 -0.4713967 0.8819213 0 0 0 1 -0.2902846 0.9569404 0 -0.09801727 0.9951847 0 0 0 -1 0.1173734 0.9930878 0 0.3420597 0.9396783 0 0.5398989 0.8417299 0 0.701678 0.7124941 0 0.8254283 0.564507 0 0.9134792 0.4068855 0 0.9695032 0.2450785 0 0.9966487 0.08180081 0 0.9966487 -0.08180081 0 0.9695032 -0.2450785 0 0.9134792 -0.4068855 0 0.8254283 -0.564507 0 0.701678 -0.7124941 0 0.5398989 -0.8417299 0 0.3420597 -0.9396783 0 0.1173734 -0.9930878 0 -0.1173734 -0.9930878 0 -0.3420597 -0.9396783 0 -0.5398989 -0.8417299 0 -0.701678 -0.7124941 0 -0.8254283 -0.564507 0 -0.9134792 -0.4068855 0 -0.9695032 -0.2450785 0 -0.9966487 -0.08180081 0 -0.9966487 0.08180081 0 -0.9695032 0.2450785 0 -0.9134792 0.4068855 0 -0.8254283 0.564507 0 -0.701678 0.7124941 0 -0.5398989 0.8417299 0 0 0 1 0 0 1 0 0 1 0 0 1 0 0 1 0 0 1 0 0 1 0 0 1 0 0 1 0 0 1 0 0 1 0 0 1 0 0 1 0 0 1 0 0 1 0 0 1 0 0 1 0 0 1 0 0 1 0 0 1 0 0 1 0 0 1 0 0 1 0 0 1 0 0 1 0 0 1 0 0 1 0 0 1 0 0 1 -0.3420597 0.9396783 0 -0.1173734 0.9930878 0 0 0 -1 0 0 -1 0 0 -1 0 0 -1 0 0 -1 0 0 -1 0 0 -1 0 0 -1 0 0 -1 0 0 -1 0 0 -1 0 0 -1 0 0 -1 0 0 -1 0 0 -1 0 0 -1 0 0 -1 0 0 -1 0 0 -1 0 0 -1 0 0 -1 0 0 -1 0 0 -1 0 0 -1 0 0 -1 0 0 -1 0 0 -1 0 0 -1 0 0 -1 0.09801727 0.9951847 0 0.2902846 0.9569404 0 0.4713967 0.8819213 0 0.6343935 0.7730103 0 0.7730103 0.6343935 0 0.8819213 0.4713967 0 0.9569404 0.2902846 0 0.9951847 0.09801727 0 0.9951847 -0.09801727 0 0.9569404 -0.2902846 0 0.8819213 -0.4713967 0 0.7730103 -0.6343935 0 0.6343935 -0.7730103 0 0.4713967 -0.8819213 0 0.2902846 -0.9569404 0 0.09801727 -0.9951847 0 -0.09801727 -0.9951847 0 -0.2902846 -0.9569404 0 -0.4713967 -0.8819213 0 -0.6343935 -0.7730103 0 -0.7730103 -0.6343935 0 -0.8819213 -0.4713967 0 -0.9569404 -0.2902846 0 -0.9951847 -0.09801727 0 -0.9951847 0.09801727 0 -0.9569404 0.2902846 0 -0.8819213 0.4713967 0 -0.7730103 0.6343935 0 -0.6343935 0.7730103 0 -0.4713967 0.8819213 0 0 0 1 0 0 1 0 0 1 0 0 1 0 0 1 0 0 1 0 0 1 0 0 1 0 0 1 0 0 1 0 0 1 0 0 1 0 0 1 0 0 1 0 0 1 0 0 1 0 0 1 0 0 1 0 0 1 0 0 1 0 0 1 0 0 1 0 0 1 0 0 1 0 0 1 0 0 1 0 0 1 0 0 1 0 0 1 -0.2902846 0.9569404 0 -0.09801727 0.9951847 0 0 0 -1 0 0 -1 0 0 -1 0 0 -1 0 0 -1 0 0 -1 0 0 -1 0 0 -1 0 0 -1 0 0 -1 0 0 -1 0 0 -1 0 0 -1 0 0 -1 0 0 -1 0 0 -1 0 0 -1 0 0 -1 0 0 -1 0 0 -1 0 0 -1 0 0 -1 0 0 -1 0 0 -1 0 0 -1 0 0 -1 0 0 -1 0 0 -1 0 0 -1 -1 0 0 0 1 0 1 0 0 0 -1 0 0 0 -1 0 0 1 -1 0 0 0 1 0 1 0 0 0 -1 0 0 0 -1 0 0 1</float_array>
          <technique_common>
            <accessor source="#Cylinder_013-mesh-normals-array" count="260" stride="3">
              <param name="X" type="float"/>
              <param name="Y" type="float"/>
              <param name="Z" type="float"/>
            </accessor>
          </technique_common>
        </source>
        <source id="Cylinder_013-mesh-map-0">
          <float_array id="Cylinder_013-mesh-map-0-array" count="1560">1 0.5 0.96875 1 0.96875 0.5 0.96875 0.5 0.9375 1 0.9375 0.5 0.9375 0.5 0.90625 1 0.90625 0.5 0.90625 0.5 0.875 1 0.875 0.5 0.875 0.5 0.84375 1 0.84375 0.5 0.84375 0.5 0.8125 1 0.8125 0.5 0.8125 0.5 0.78125 1 0.78125 0.5 0.78125 0.5 0.75 1 0.75 0.5 0.75 0.5 0.71875 1 0.71875 0.5 0.71875 0.5 0.6875 1 0.6875 0.5 0.6875 0.5 0.65625 1 0.65625 0.5 0.65625 0.5 0.625 1 0.625 0.5 0.625 0.5 0.59375 1 0.59375 0.5 0.59375 0.5 0.5625 1 0.5625 0.5 0.5625 0.5 0.53125 1 0.53125 0.5 0.53125 0.5 0.5 1 0.5 0.5 0.5 0.5 0.46875 1 0.46875 0.5 0.46875 0.5 0.4375 1 0.4375 0.5 0.4375 0.5 0.40625 1 0.40625 0.5 0.40625 0.5 0.375 1 0.375 0.5 0.375 0.5 0.34375 1 0.34375 0.5 0.34375 0.5 0.3125 1 0.3125 0.5 0.3125 0.5 0.28125 1 0.28125 0.5 0.28125 0.5 0.25 1 0.25 0.5 0.25 0.5 0.21875 1 0.21875 0.5 0.21875 0.5 0.1875 1 0.1875 0.5 0.1875 0.5 0.15625 1 0.15625 0.5 0.15625 0.5 0.125 1 0.125 0.5 0.125 0.5 0.09375 1 0.09375 0.5 0.09375 0.5 0.0625 1 0.0625 0.5 0.4197056 0.4197056 0.3833369 0.4495527 0.08029437 0.4197056 0.0625 0.5 0.03125 1 0.03125 0.5 0.03125 0.5 0 1 0 0.5 0.6166632 0.4495527 0.658156 0.4717311 0.8833369 0.4495527 1 0.5 0.96875 1 0.96875 0.5 0.96875 0.5 0.9375 1 0.9375 0.5 0.9375 0.5 0.90625 1 0.90625 0.5 0.90625 0.5 0.875 1 0.875 0.5 0.875 0.5 0.84375 1 0.84375 0.5 0.84375 0.5 0.8125 1 0.8125 0.5 0.8125 0.5 0.78125 1 0.78125 0.5 0.78125 0.5 0.75 1 0.75 0.5 0.75 0.5 0.71875 1 0.71875 0.5 0.71875 0.5 0.6875 1 0.6875 0.5 0.6875 0.5 0.65625 1 0.65625 0.5 0.65625 0.5 0.625 1 0.625 0.5 0.625 0.5 0.59375 1 0.59375 0.5 0.59375 0.5 0.5625 1 0.5625 0.5 0.5625 0.5 0.53125 1 0.53125 0.5 0.53125 0.5 0.5 1 0.5 0.5 0.5 0.5 0.46875 1 0.46875 0.5 0.46875 0.5 0.4375 1 0.4375 0.5 0.4375 0.5 0.40625 1 0.40625 0.5 0.40625 0.5 0.375 1 0.375 0.5 0.375 0.5 0.34375 1 0.34375 0.5 0.34375 0.5 0.3125 1 0.3125 0.5 0.3125 0.5 0.28125 1 0.28125 0.5 0.28125 0.5 0.25 1 0.25 0.5 0.25 0.5 0.21875 1 0.21875 0.5 0.21875 0.5 0.1875 1 0.1875 0.5 0.1875 0.5 0.15625 1 0.15625 0.5 0.15625 0.5 0.125 1 0.125 0.5 0.125 0.5 0.09375 1 0.09375 0.5 0.09375 0.5 0.0625 1 0.0625 0.5 0.4717311 0.341844 0.341844 0.4717311 0.1581559 0.02826887 0.0625 0.5 0.03125 1 0.03125 0.5 0.03125 0.5 0 1 0 0.5 0.5146116 0.2031783 0.5504473 0.3833369 0.7031784 0.4853885 1 0.5 1 1 0.96875 1 0.96875 0.5 0.96875 1 0.9375 1 0.9375 0.5 0.9375 1 0.90625 1 0.90625 0.5 0.90625 1 0.875 1 0.875 0.5 0.875 1 0.84375 1 0.84375 0.5 0.84375 1 0.8125 1 0.8125 0.5 0.8125 1 0.78125 1 0.78125 0.5 0.78125 1 0.75 1 0.75 0.5 0.75 1 0.71875 1 0.71875 0.5 0.71875 1 0.6875 1 0.6875 0.5 0.6875 1 0.65625 1 0.65625 0.5 0.65625 1 0.625 1 0.625 0.5 0.625 1 0.59375 1 0.59375 0.5 0.59375 1 0.5625 1 0.5625 0.5 0.5625 1 0.53125 1 0.53125 0.5 0.53125 1 0.5 1 0.5 0.5 0.5 1 0.46875 1 0.46875 0.5 0.46875 1 0.4375 1 0.4375 0.5 0.4375 1 0.40625 1 0.40625 0.5 0.40625 1 0.375 1 0.375 0.5 0.375 1 0.34375 1 0.34375 0.5 0.34375 1 0.3125 1 0.3125 0.5 0.3125 1 0.28125 1 0.28125 0.5 0.28125 1 0.25 1 0.25 0.5 0.25 1 0.21875 1 0.21875 0.5 0.21875 1 0.1875 1 0.1875 0.5 0.1875 1 0.15625 1 0.15625 0.5 0.15625 1 0.125 1 0.125 0.5 0.125 1 0.09375 1 0.09375 0.5 0.09375 1 0.0625 1 0.341844 0.4717311 0.2968217 0.4853885 0.2031783 0.4853885 0.2968217 0.4853885 0.25 0.49 0.2031783 0.4853885 0.2031783 0.4853885 0.1581559 0.4717311 0.341844 0.4717311 0.1581559 0.4717311 0.1166631 0.4495527 0.341844 0.4717311 0.1166631 0.4495527 0.08029437 0.4197056 0.3833369 0.4495527 0.341844 0.4717311 0.1166631 0.4495527 0.3833369 0.4495527 0.08029437 0.4197056 0.05044728 0.3833369 0.4197056 0.4197056 0.05044728 0.3833369 0.02826887 0.341844 0.4495527 0.3833369 0.4197056 0.4197056 0.05044728 0.3833369 0.4495527 0.3833369 0.02826887 0.341844 0.01461154 0.2968217 0.4853885 0.2968217 0.01461154 0.2968217 0.00999999 0.25 0.49 0.25 0.00999999 0.25 0.01461154 0.2031783 0.4853885 0.2031783 0.01461154 0.2031783 0.02826887 0.1581559 0.4717311 0.1581559 0.02826887 0.1581559 0.05044728 0.1166631 0.4717311 0.1581559 0.05044728 0.1166631 0.08029437 0.08029437 0.4495527 0.1166631 0.4717311 0.1581559 0.05044728 0.1166631 0.4495527 0.1166631 0.08029437 0.08029437 0.1166631 0.05044728 0.4197056 0.08029437 0.1166631 0.05044728 0.1581559 0.02826887 0.3833369 0.05044728 0.4197056 0.08029437 0.1166631 0.05044728 0.3833369 0.05044728 0.1581559 0.02826887 0.2031783 0.01461154 0.2968217 0.01461154 0.2031783 0.01461154 0.25 0.00999999 0.2968217 0.01461154 0.2968217 0.01461154 0.341844 0.02826887 0.1581559 0.02826887 0.341844 0.02826887 0.3833369 0.05044728 0.1581559 0.02826887 0.4197056 0.08029437 0.4495527 0.1166631 0.08029437 0.08029437 0.4717311 0.1581559 0.4853885 0.2031783 0.01461154 0.2031783 0.4853885 0.2031783 0.49 0.25 0.00999999 0.25 0.49 0.25 0.4853885 0.2968217 0.01461154 0.2968217 0.4853885 0.2968217 0.4717311 0.341844 0.02826887 0.341844 0.4717311 0.341844 0.4495527 0.3833369 0.02826887 0.341844 0.0625 0.5 0.0625 1 0.03125 1 0.03125 0.5 0.03125 1 0 1 0.7031784 0.4853885 0.75 0.49 0.7968217 0.4853885 0.7968217 0.4853885 0.841844 0.4717311 0.7031784 0.4853885 0.841844 0.4717311 0.8833369 0.4495527 0.658156 0.4717311 0.7031784 0.4853885 0.841844 0.4717311 0.658156 0.4717311 0.8833369 0.4495527 0.9197056 0.4197056 0.5802944 0.4197056 0.9197056 0.4197056 0.9495527 0.3833369 0.5504473 0.3833369 0.9495527 0.3833369 0.9717311 0.341844 0.5504473 0.3833369 0.9717311 0.341844 0.9853885 0.2968217 0.5282689 0.341844 0.5504473 0.3833369 0.9717311 0.341844 0.5282689 0.341844 0.9853885 0.2968217 0.99 0.25 0.51 0.25 0.99 0.25 0.9853885 0.2031783 0.5146116 0.2031783 0.9853885 0.2031783 0.9717311 0.1581559 0.5146116 0.2031783 0.9717311 0.1581559 0.9495527 0.1166631 0.5282689 0.1581559 0.5146116 0.2031783 0.9717311 0.1581559 0.5282689 0.1581559 0.9495527 0.1166631 0.9197056 0.08029437 0.5802944 0.08029437 0.9197056 0.08029437 0.8833369 0.05044728 0.6166632 0.05044728 0.8833369 0.05044728 0.841844 0.02826887 0.6166632 0.05044728 0.841844 0.02826887 0.7968217 0.01461154 0.658156 0.02826887 0.6166632 0.05044728 0.841844 0.02826887 0.658156 0.02826887 0.7968217 0.01461154 0.75 0.00999999 0.7031784 0.01461154 0.7031784 0.01461154 0.658156 0.02826887 0.7968217 0.01461154 0.6166632 0.05044728 0.5802944 0.08029437 0.9197056 0.08029437 0.5802944 0.08029437 0.5504473 0.1166631 0.9495527 0.1166631 0.5504473 0.1166631 0.5282689 0.1581559 0.9495527 0.1166631 0.5146116 0.2031783 0.51 0.25 0.99 0.25 0.51 0.25 0.5146116 0.2968217 0.9853885 0.2968217 0.5146116 0.2968217 0.5282689 0.341844 0.9853885 0.2968217 0.5504473 0.3833369 0.5802944 0.4197056 0.9197056 0.4197056 0.5802944 0.4197056 0.6166632 0.4495527 0.8833369 0.4495527 1 0.5 1 1 0.96875 1 0.96875 0.5 0.96875 1 0.9375 1 0.9375 0.5 0.9375 1 0.90625 1 0.90625 0.5 0.90625 1 0.875 1 0.875 0.5 0.875 1 0.84375 1 0.84375 0.5 0.84375 1 0.8125 1 0.8125 0.5 0.8125 1 0.78125 1 0.78125 0.5 0.78125 1 0.75 1 0.75 0.5 0.75 1 0.71875 1 0.71875 0.5 0.71875 1 0.6875 1 0.6875 0.5 0.6875 1 0.65625 1 0.65625 0.5 0.65625 1 0.625 1 0.625 0.5 0.625 1 0.59375 1 0.59375 0.5 0.59375 1 0.5625 1 0.5625 0.5 0.5625 1 0.53125 1 0.53125 0.5 0.53125 1 0.5 1 0.5 0.5 0.5 1 0.46875 1 0.46875 0.5 0.46875 1 0.4375 1 0.4375 0.5 0.4375 1 0.40625 1 0.40625 0.5 0.40625 1 0.375 1 0.375 0.5 0.375 1 0.34375 1 0.34375 0.5 0.34375 1 0.3125 1 0.3125 0.5 0.3125 1 0.28125 1 0.28125 0.5 0.28125 1 0.25 1 0.25 0.5 0.25 1 0.21875 1 0.21875 0.5 0.21875 1 0.1875 1 0.1875 0.5 0.1875 1 0.15625 1 0.15625 0.5 0.15625 1 0.125 1 0.125 0.5 0.125 1 0.09375 1 0.09375 0.5 0.09375 1 0.0625 1 0.341844 0.4717311 0.2968217 0.4853885 0.25 0.49 0.25 0.49 0.2031783 0.4853885 0.341844 0.4717311 0.2031783 0.4853885 0.1581559 0.4717311 0.341844 0.4717311 0.1581559 0.4717311 0.1166631 0.4495527 0.08029437 0.4197056 0.08029437 0.4197056 0.05044728 0.3833369 0.02826887 0.341844 0.02826887 0.341844 0.01461154 0.2968217 0.00999999 0.25 0.00999999 0.25 0.01461154 0.2031783 0.02826887 0.341844 0.01461154 0.2031783 0.02826887 0.1581559 0.02826887 0.341844 0.02826887 0.1581559 0.05044728 0.1166631 0.08029437 0.08029437 0.08029437 0.08029437 0.1166631 0.05044728 0.1581559 0.02826887 0.1581559 0.02826887 0.2031783 0.01461154 0.341844 0.02826887 0.2031783 0.01461154 0.25 0.00999999 0.341844 0.02826887 0.25 0.00999999 0.2968217 0.01461154 0.341844 0.02826887 0.341844 0.02826887 0.3833369 0.05044728 0.4197056 0.08029437 0.4197056 0.08029437 0.4495527 0.1166631 0.4717311 0.1581559 0.4717311 0.1581559 0.4853885 0.2031783 0.49 0.25 0.49 0.25 0.4853885 0.2968217 0.4717311 0.1581559 0.4853885 0.2968217 0.4717311 0.341844 0.4717311 0.1581559 0.4717311 0.341844 0.4495527 0.3833369 0.4197056 0.4197056 0.4197056 0.4197056 0.3833369 0.4495527 0.341844 0.4717311 0.1581559 0.4717311 0.08029437 0.4197056 0.02826887 0.341844 0.02826887 0.1581559 0.08029437 0.08029437 0.1581559 0.02826887 0.341844 0.02826887 0.4197056 0.08029437 0.4717311 0.1581559 0.4717311 0.341844 0.4197056 0.4197056 0.341844 0.4717311 0.341844 0.4717311 0.1581559 0.4717311 0.02826887 0.341844 0.02826887 0.341844 0.02826887 0.1581559 0.341844 0.4717311 0.02826887 0.1581559 0.1581559 0.02826887 0.341844 0.4717311 0.1581559 0.02826887 0.341844 0.02826887 0.4717311 0.1581559 0.4717311 0.1581559 0.4717311 0.341844 0.1581559 0.02826887 0.0625 0.5 0.0625 1 0.03125 1 0.03125 0.5 0.03125 1 0 1 0.7031784 0.4853885 0.75 0.49 0.7968217 0.4853885 0.7968217 0.4853885 0.841844 0.4717311 0.8833369 0.4495527 0.8833369 0.4495527 0.9197056 0.4197056 0.9853885 0.2968217 0.9197056 0.4197056 0.9495527 0.3833369 0.9853885 0.2968217 0.9495527 0.3833369 0.9717311 0.341844 0.9853885 0.2968217 0.9853885 0.2968217 0.99 0.25 0.9853885 0.2031783 0.9853885 0.2031783 0.9717311 0.1581559 0.9495527 0.1166631 0.9495527 0.1166631 0.9197056 0.08029437 0.7968217 0.01461154 0.9197056 0.08029437 0.8833369 0.05044728 0.7968217 0.01461154 0.8833369 0.05044728 0.841844 0.02826887 0.7968217 0.01461154 0.7968217 0.01461154 0.75 0.00999999 0.7031784 0.01461154 0.7031784 0.01461154 0.658156 0.02826887 0.6166632 0.05044728 0.6166632 0.05044728 0.5802944 0.08029437 0.5146116 0.2031783 0.5802944 0.08029437 0.5504473 0.1166631 0.5146116 0.2031783 0.5504473 0.1166631 0.5282689 0.1581559 0.5146116 0.2031783 0.5146116 0.2031783 0.51 0.25 0.5146116 0.2968217 0.5146116 0.2968217 0.5282689 0.341844 0.5504473 0.3833369 0.5504473 0.3833369 0.5802944 0.4197056 0.7031784 0.4853885 0.5802944 0.4197056 0.6166632 0.4495527 0.7031784 0.4853885 0.6166632 0.4495527 0.658156 0.4717311 0.7031784 0.4853885 0.7031784 0.4853885 0.7968217 0.4853885 0.8833369 0.4495527 0.9853885 0.2968217 0.9853885 0.2031783 0.9495527 0.1166631 0.7968217 0.01461154 0.7031784 0.01461154 0.6166632 0.05044728 0.5146116 0.2031783 0.5146116 0.2968217 0.5504473 0.3833369 0.7031784 0.4853885 0.8833369 0.4495527 0.7968217 0.01461154 0.8833369 0.4495527 0.9853885 0.2968217 0.7968217 0.01461154 0.9853885 0.2968217 0.9495527 0.1166631 0.7968217 0.01461154 0.7968217 0.01461154 0.6166632 0.05044728 0.7031784 0.4853885 0.6166632 0.05044728 0.5146116 0.2031783 0.7031784 0.4853885 0.375 0 0.625 0.25 0.375 0.25 0.375 0.25 0.625 0.5 0.375 0.5 0.375 0.5 0.625 0.75 0.375 0.75 0.375 0.75 0.625 1 0.375 1 0.125 0.5 0.375 0.75 0.125 0.75 0.625 0.5 0.875 0.75 0.625 0.75 0.375 0 0.625 0 0.625 0.25 0.375 0.25 0.625 0.25 0.625 0.5 0.375 0.5 0.625 0.5 0.625 0.75 0.375 0.75 0.625 0.75 0.625 1 0.125 0.5 0.375 0.5 0.375 0.75 0.625 0.5 0.875 0.5 0.875 0.75</float_array>
          <technique_common>
            <accessor source="#Cylinder_013-mesh-map-0-array" count="780" stride="2">
              <param name="S" type="float"/>
              <param name="T" type="float"/>
            </accessor>
          </technique_common>
        </source>
        <vertices id="Cylinder_013-mesh-vertices">
          <input semantic="POSITION" source="#Cylinder_013-mesh-positions"/>
        </vertices>
        <triangles material="Material_004-material" count="260">
          <input semantic="VERTEX" source="#Cylinder_013-mesh-vertices" offset="0"/>
          <input semantic="NORMAL" source="#Cylinder_013-mesh-normals" offset="1"/>
          <input semantic="TEXCOORD" source="#Cylinder_013-mesh-map-0" offset="2" set="0"/>
          <p>0 0 0 3 0 1 2 0 2 2 1 3 5 1 4 4 1 5 4 2 6 7 2 7 6 2 8 6 3 9 9 3 10 8 3 11 8 4 12 11 4 13 10 4 14 10 5 15 13 5 16 12 5 17 12 6 18 15 6 19 14 6 20 14 7 21 17 7 22 16 7 23 16 8 24 19 8 25 18 8 26 18 9 27 21 9 28 20 9 29 20 10 30 23 10 31 22 10 32 22 11 33 25 11 34 24 11 35 24 12 36 27 12 37 26 12 38 26 13 39 29 13 40 28 13 41 28 14 42 31 14 43 30 14 44 30 15 45 33 15 46 32 15 47 32 16 48 35 16 49 34 16 50 34 17 51 37 17 52 36 17 53 36 18 54 39 18 55 38 18 56 38 19 57 41 19 58 40 19 59 40 20 60 43 20 61 42 20 62 42 21 63 45 21 64 44 21 65 44 22 66 47 22 67 46 22 68 46 23 69 49 23 70 48 23 71 48 24 72 51 24 73 50 24 74 50 25 75 53 25 76 52 25 77 52 26 78 55 26 79 54 26 80 54 27 81 57 27 82 56 27 83 56 28 84 59 28 85 58 28 86 58 29 87 61 29 88 60 29 89 9 30 90 7 30 91 57 30 92 60 31 93 63 31 94 62 31 95 62 32 96 1 32 97 0 32 98 58 33 99 60 33 100 6 33 101 64 34 102 67 34 103 66 34 104 66 35 105 69 35 106 68 35 107 68 36 108 71 36 109 70 36 110 70 37 111 73 37 112 72 37 113 72 38 114 75 38 115 74 38 116 74 39 117 77 39 118 76 39 119 76 40 120 79 40 121 78 40 122 78 41 123 81 41 124 80 41 125 80 42 126 83 42 127 82 42 128 82 43 129 85 43 130 84 43 131 84 44 132 87 44 133 86 44 134 86 45 135 89 45 136 88 45 137 88 46 138 91 46 139 90 46 140 90 47 141 93 47 142 92 47 143 92 48 144 95 48 145 94 48 146 94 49 147 97 49 148 96 49 149 96 50 150 99 50 151 98 50 152 98 51 153 101 51 154 100 51 155 100 52 156 103 52 157 102 52 158 102 53 159 105 53 160 104 53 161 104 54 162 107 54 163 106 54 164 106 55 165 109 55 166 108 55 167 108 56 168 111 56 169 110 56 170 110 57 171 113 57 172 112 57 173 112 58 174 115 58 175 114 58 176 114 59 177 117 59 178 116 59 179 116 60 180 119 60 181 118 60 182 118 61 183 121 61 184 120 61 185 120 62 186 123 62 187 122 62 188 122 63 189 125 63 190 124 63 191 77 64 192 69 64 193 101 64 194 124 65 195 127 65 196 126 65 197 126 66 198 65 66 199 64 66 200 110 67 201 118 67 202 126 67 203 0 68 204 1 68 205 3 68 206 2 69 207 3 69 208 5 69 209 4 70 210 5 70 211 7 70 212 6 71 213 7 71 214 9 71 215 8 72 216 9 72 217 11 72 218 10 73 219 11 73 220 13 73 221 12 74 222 13 74 223 15 74 224 14 75 225 15 75 226 17 75 227 16 76 228 17 76 229 19 76 230 18 77 231 19 77 232 21 77 233 20 78 234 21 78 235 23 78 236 22 79 237 23 79 238 25 79 239 24 80 240 25 80 241 27 80 242 26 81 243 27 81 244 29 81 245 28 82 246 29 82 247 31 82 248 30 83 249 31 83 250 33 83 251 32 84 252 33 84 253 35 84 254 34 85 255 35 85 256 37 85 257 36 86 258 37 86 259 39 86 260 38 87 261 39 87 262 41 87 263 40 88 264 41 88 265 43 88 266 42 89 267 43 89 268 45 89 269 44 90 270 45 90 271 47 90 272 46 91 273 47 91 274 49 91 275 48 92 276 49 92 277 51 92 278 50 93 279 51 93 280 53 93 281 52 94 282 53 94 283 55 94 284 54 95 285 55 95 286 57 95 287 56 96 288 57 96 289 59 96 290 58 97 291 59 97 292 61 97 293 5 98 294 3 98 295 63 98 296 3 99 297 1 99 298 63 99 299 63 100 300 61 100 301 5 100 302 61 101 303 59 101 304 5 101 305 59 102 306 57 102 307 7 102 308 5 103 309 59 103 310 7 103 311 57 104 312 55 104 313 9 104 314 55 105 315 53 105 316 11 105 317 9 106 318 55 106 319 11 106 320 53 107 321 51 107 322 15 107 323 51 108 324 49 108 325 17 108 326 49 109 327 47 109 328 19 109 329 47 110 330 45 110 331 21 110 332 45 111 333 43 111 334 21 111 335 43 112 336 41 112 337 23 112 338 21 113 339 43 113 340 23 113 341 41 114 342 39 114 343 25 114 344 39 115 345 37 115 346 27 115 347 25 116 348 39 116 349 27 116 350 37 117 351 35 117 352 31 117 353 35 118 354 33 118 355 31 118 356 31 119 357 29 119 358 37 119 359 29 120 360 27 120 361 37 120 362 25 121 363 23 121 364 41 121 365 21 122 366 19 122 367 47 122 368 19 123 369 17 123 370 49 123 371 17 124 372 15 124 373 51 124 374 15 125 375 13 125 376 53 125 377 13 126 378 11 126 379 53 126 380 60 127 381 61 127 382 63 127 383 62 128 384 63 128 385 1 128 386 62 129 387 0 129 388 2 129 389 2 130 390 4 130 391 62 130 392 4 131 393 6 131 394 60 131 395 62 132 396 4 132 397 60 132 398 6 133 399 8 133 400 56 133 401 8 134 402 10 134 403 54 134 404 10 135 405 12 135 406 54 135 407 12 136 408 14 136 409 52 136 410 54 137 411 12 137 412 52 137 413 14 138 414 16 138 415 48 138 416 16 139 417 18 139 418 46 139 419 18 140 420 20 140 421 46 140 422 20 141 423 22 141 424 44 141 425 46 142 426 20 142 427 44 142 428 22 143 429 24 143 430 40 143 431 24 144 432 26 144 433 38 144 434 26 145 435 28 145 436 38 145 437 28 146 438 30 146 439 36 146 440 38 147 441 28 147 442 36 147 443 30 148 444 32 148 445 34 148 446 34 149 447 36 149 448 30 149 449 38 150 450 40 150 451 24 150 452 40 151 453 42 151 454 22 151 455 42 152 456 44 152 457 22 152 458 46 153 459 48 153 460 16 153 461 48 154 462 50 154 463 14 154 464 50 155 465 52 155 466 14 155 467 54 156 468 56 156 469 8 156 470 56 157 471 58 157 472 6 157 473 64 158 474 65 158 475 67 158 476 66 159 477 67 159 478 69 159 479 68 160 480 69 160 481 71 160 482 70 161 483 71 161 484 73 161 485 72 162 486 73 162 487 75 162 488 74 163 489 75 163 490 77 163 491 76 164 492 77 164 493 79 164 494 78 165 495 79 165 496 81 165 497 80 166 498 81 166 499 83 166 500 82 167 501 83 167 502 85 167 503 84 168 504 85 168 505 87 168 506 86 169 507 87 169 508 89 169 509 88 170 510 89 170 511 91 170 512 90 171 513 91 171 514 93 171 515 92 172 516 93 172 517 95 172 518 94 173 519 95 173 520 97 173 521 96 174 522 97 174 523 99 174 524 98 175 525 99 175 526 101 175 527 100 176 528 101 176 529 103 176 530 102 177 531 103 177 532 105 177 533 104 178 534 105 178 535 107 178 536 106 179 537 107 179 538 109 179 539 108 180 540 109 180 541 111 180 542 110 181 543 111 181 544 113 181 545 112 182 546 113 182 547 115 182 548 114 183 549 115 183 550 117 183 551 116 184 552 117 184 553 119 184 554 118 185 555 119 185 556 121 185 557 120 186 558 121 186 559 123 186 560 122 187 561 123 187 562 125 187 563 69 188 564 67 188 565 65 188 566 65 189 567 127 189 568 69 189 569 127 190 570 125 190 571 69 190 572 125 191 573 123 191 574 121 191 575 121 192 576 119 192 577 117 192 578 117 193 579 115 193 580 113 193 581 113 194 582 111 194 583 117 194 584 111 195 585 109 195 586 117 195 587 109 196 588 107 196 589 105 196 590 105 197 591 103 197 592 101 197 593 101 198 594 99 198 595 93 198 596 99 199 597 97 199 598 93 199 599 97 200 600 95 200 601 93 200 602 93 201 603 91 201 604 89 201 605 89 202 606 87 202 607 85 202 608 85 203 609 83 203 610 81 203 611 81 204 612 79 204 613 85 204 614 79 205 615 77 205 616 85 205 617 77 206 618 75 206 619 73 206 620 73 207 621 71 207 622 69 207 623 125 208 624 121 208 625 117 208 626 109 209 627 105 209 628 101 209 629 93 210 630 89 210 631 85 210 632 77 211 633 73 211 634 69 211 635 69 212 636 125 212 637 117 212 638 117 213 639 109 213 640 69 213 641 109 214 642 101 214 643 69 214 644 101 215 645 93 215 646 85 215 647 85 216 648 77 216 649 101 216 650 124 217 651 125 217 652 127 217 653 126 218 654 127 218 655 65 218 656 126 219 657 64 219 658 66 219 659 66 220 660 68 220 661 70 220 662 70 221 663 72 221 664 78 221 665 72 222 666 74 222 667 78 222 668 74 223 669 76 223 670 78 223 671 78 224 672 80 224 673 82 224 674 82 225 675 84 225 676 86 225 677 86 226 678 88 226 679 94 226 680 88 227 681 90 227 682 94 227 683 90 228 684 92 228 685 94 228 686 94 229 687 96 229 688 98 229 689 98 230 690 100 230 691 102 230 692 102 231 693 104 231 694 110 231 695 104 232 696 106 232 697 110 232 698 106 233 699 108 233 700 110 233 701 110 234 702 112 234 703 114 234 704 114 235 705 116 235 706 118 235 707 118 236 708 120 236 709 126 236 710 120 237 711 122 237 712 126 237 713 122 238 714 124 238 715 126 238 716 126 239 717 66 239 718 70 239 719 78 240 720 82 240 721 86 240 722 94 241 723 98 241 724 102 241 725 110 242 726 114 242 727 118 242 728 126 243 729 70 243 730 94 243 731 70 244 732 78 244 733 94 244 734 78 245 735 86 245 736 94 245 737 94 246 738 102 246 739 126 246 740 102 247 741 110 247 742 126 247 743 128 248 744 131 248 745 130 248 746 130 249 747 135 249 748 134 249 749 134 250 750 133 250 751 132 250 752 132 251 753 129 251 754 128 251 755 130 252 756 132 252 757 128 252 758 135 253 759 129 253 760 133 253 761 128 254 762 129 254 763 131 254 764 130 255 765 131 255 766 135 255 767 134 256 768 135 256 769 133 256 770 132 257 771 133 257 772 129 257 773 130 258 774 134 258 775 132 258 776 135 259 777 131 259 778 129 259 779</p>
        </triangles>
      </mesh>
    </geometry>
  </library_geometries>
  <library_visual_scenes>
    <visual_scene id="Scene" name="Scene">
      <node id="tmp_export_Cylinder_013" name="tmp_export_Cylinder.013" type="NODE">
        <matrix sid="transform">1 0 0 0 0 1 0 0 0 0 1 0 0 0 0 1</matrix>
        <instance_geometry url="#Cylinder_013-mesh" name="tmp_export_Cylinder.013">
          <bind_material>
            <technique_common>
              <instance_material symbol="Material_004-material" target="#Material_004-material">
                <bind_vertex_input semantic="UVMap" input_semantic="TEXCOORD" input_set="0"/>
              </instance_material>
              <instance_material symbol="Material-material" target="#Material-material">
                <bind_vertex_input semantic="UVMap" input_semantic="TEXCOORD" input_set="0"/>
              </instance_material>
              <instance_material symbol="Material_003-material" target="#Material_003-material">
                <bind_vertex_input semantic="UVMap" input_semantic="TEXCOORD" input_set="0"/>
              </instance_material>
            </technique_common>
          </bind_material>
        </instance_geometry>
      </node>
    </visual_scene>
  </library_visual_scenes>
  <scene>
    <instance_visual_scene url="#Scene"/>
  </scene>
</COLLADA>